<svg xmlns:xlink="http://www.w3.org/1999/xlink" xmlns="http://www.w3.org/2000/svg" width="24" height="24" fill="#07142d"><defs><symbol viewBox="0 0 26 24" id="behance"><title>behance</title><path fill-rule="evenodd" clip-rule="evenodd" d="M13.1919 14.8572C13.1919 14.0141 12.9983 13.2647 12.6111 12.7026C12.2239 12.1406 11.6431 11.7659 10.8687 11.4849C11.3527 11.2038 11.7399 10.9228 12.0303 10.6418C12.5143 10.0797 12.7079 9.33033 12.7079 8.48725C12.7079 7.64417 12.5143 6.89477 12.0303 6.23904C11.2559 5.30229 9.99753 4.74023 8.15835 4.74023L0.898438 4.74023L0.898438 19.2599H7.57756C8.35195 19.2599 9.02954 19.1662 9.70714 19.0726C10.3847 18.8852 10.9655 18.6979 11.4495 18.3232C11.8367 18.0421 12.2239 17.6674 12.5143 17.1991C12.9983 16.4497 13.1919 15.7003 13.1919 14.8572ZM16.678 6.79943L22.7763 6.79943V5.3943L16.678 5.3943V6.79943ZM4.38349 10.4528H7.57785C8.25544 10.4528 8.73944 10.3592 9.12663 10.0781C9.51383 9.89078 9.70742 9.4224 9.70742 8.86035C9.70742 8.20462 9.41703 7.73625 8.93303 7.5489C8.44904 7.36154 7.86825 7.26787 7.19065 7.26787H4.38349V10.4528ZM9.12663 13.0755C9.80422 13.3565 10.0946 13.9185 10.0946 14.6679C10.0946 15.511 9.70742 16.1667 9.12663 16.4478C8.73944 16.6351 8.25544 16.7288 7.57785 16.7288H4.38349L4.38349 12.8881H7.57785C8.25544 12.8881 8.73944 12.8881 9.12663 13.0755ZM25.0019 12.3269C25.0987 12.7953 25.0987 13.451 25.0987 14.3878H17.258C17.258 15.4182 17.6452 16.1676 18.4196 16.5423C18.8068 16.8234 19.3876 16.917 19.9684 16.917C20.646 16.917 21.13 16.7297 21.5172 16.4486C21.7108 16.2613 21.9044 16.0739 22.098 15.6992H25.0019C24.9051 16.355 24.6147 16.917 23.9371 17.5728C22.9691 18.6032 21.614 19.0716 19.8716 19.0716C18.4196 19.0716 17.1612 18.6032 16.0964 17.7601C15.0316 16.917 14.4508 15.5119 14.4508 13.6384C14.4508 11.8586 14.9348 10.4534 15.9028 9.51667C16.8708 8.57992 18.226 8.11154 19.7748 8.11154C20.7428 8.11154 21.5172 8.29889 22.2916 8.57992C23.0659 8.95462 23.6467 9.423 24.1307 10.1724C24.6147 10.7345 24.9051 11.4839 25.0019 12.3269ZM21.4203 10.922C21.9043 11.2967 22.0979 11.765 22.1947 12.5145H17.3548C17.4516 11.8587 17.742 11.2967 18.1292 10.922C18.5164 10.5473 19.0972 10.3599 19.7748 10.3599C20.4523 10.3599 20.9363 10.5473 21.4203 10.922Z" fill="#394254"></path></symbol></defs><use xlink:href="#behance" fill="#07142D"></use></svg>