<svg xmlns:xlink="http://www.w3.org/1999/xlink" xmlns="http://www.w3.org/2000/svg" width="24" height="24" fill="#07142d"><defs><symbol viewBox="0 0 24 24" id="clutch"><title>clutch</title><path d="M16.6172 15.636C15.6327 16.449 14.3903 16.8884 13.0776 16.8664C10.0771 16.8664 7.87367 14.8012 7.87367 11.9669C7.87367 9.13273 10.0068 7.15537 13.0776 7.15537C14.3903 7.1334 15.6561 7.57281 16.6406 8.36376L17.297 8.89105L20.2037 6.16669L19.477 5.52954C17.7189 4.0575 15.4451 3.26656 13.0776 3.28853C7.68615 3.28853 3.77148 6.93566 3.77148 11.945C3.77148 16.9543 7.77991 20.7113 13.0776 20.7113C15.4686 20.7332 17.7658 19.9203 19.5239 18.4263L20.2271 17.8111L17.2735 15.0868L16.6172 15.636Z" fill="#394254"></path><ellipse cx="13.1544" cy="11.9993" rx="2.90394" ry="2.7511" fill="#394254" fill-opacity="0.8"></ellipse></symbol></defs><use xlink:href="#clutch" fill="#07142D"></use></svg>