<svg xmlns:xlink="http://www.w3.org/1999/xlink" xmlns="http://www.w3.org/2000/svg" width="24" height="24" fill="#07142d"><defs><symbol viewBox="0 0 24 24" id="dribbble"><title>dribbble</title><path fill-rule="evenodd" clip-rule="evenodd" d="M2.32031 11.9999C2.32031 17.3776 6.67622 21.6797 12.0001 21.6797C17.324 21.6797 21.6799 17.3776 21.6799 11.9999C21.6799 6.62224 17.324 2.32012 12.0001 2.32012C6.67622 2.32011 2.32031 6.72002 2.32031 11.9999ZM6.77286 5.64542C8.22483 4.47211 9.96719 3.78768 11.9032 3.78768C11.8064 4.08101 11.3224 6.81873 11.6128 9.55645L11.2256 9.752L10.064 10.3386C8.80562 7.20983 7.06326 5.84097 6.77286 5.64542ZM5.90206 6.52392C4.54689 7.99055 3.77251 9.94606 3.77251 11.9994C3.77251 12.6838 3.86931 13.3682 3.9661 13.9549C4.0082 13.9265 4.0869 13.8694 4.19866 13.7883C4.85799 13.3099 6.66808 11.9965 8.9028 10.826C7.8687 8.21469 6.45102 6.9982 6.01571 6.62466C5.96204 6.57862 5.92331 6.54538 5.90206 6.52392ZM4.74604 15.3828L4.74606 15.3828L4.74606 15.3828C5.37272 14.9454 7.18517 13.6803 9.29074 12.4893C10.2969 16.0927 10.2659 19.3469 10.2594 20.0241L10.2594 20.0242L10.2594 20.0242L10.2594 20.0242C10.259 20.0636 10.2587 20.0943 10.2587 20.1158C7.74198 19.5291 5.61242 17.867 4.54765 15.5203C4.58532 15.495 4.6523 15.4482 4.74565 15.3831L4.74594 15.3829L4.74604 15.3828ZM11.7099 20.311L12.0003 20.311C14.1299 20.311 16.0658 19.431 17.421 18.1599C17.4068 18.1504 17.3844 18.136 17.3543 18.1167C16.7681 17.7401 13.2894 15.5057 12.0003 11.4134L11.9035 11.1201C11.781 11.182 11.6487 11.2537 11.5098 11.329L11.5097 11.329C11.2099 11.4916 10.8791 11.6709 10.5484 11.8045C11.7472 15.7168 11.7161 19.5404 11.7104 20.2316C11.7102 20.2659 11.7099 20.2925 11.7099 20.311ZM20.2285 12.0009C20.2285 13.9564 19.5509 15.7163 18.4862 17.0852C18.4648 17.0708 18.4272 17.0485 18.3753 17.0177C17.7213 16.6294 14.7908 14.8896 13.3559 10.632L13.3559 10.5342C16.3566 9.36092 18.8734 8.87204 19.6477 8.77427C20.0349 9.75203 20.2285 10.8276 20.2285 12.0009ZM18.6537 7.44664C18.7474 7.42912 18.8208 7.41539 18.8723 7.40498C17.614 5.54725 15.5812 4.27616 13.3549 3.78729C13.2581 4.08061 12.5805 6.42723 12.9677 8.96939C15.6491 8.00832 17.8667 7.59375 18.6537 7.44664Z" fill="#394254"></path></symbol></defs><use xlink:href="#dribbble" fill="#07142D"></use></svg>