<svg xmlns:xlink="http://www.w3.org/1999/xlink" xmlns="http://www.w3.org/2000/svg" width="24" height="24" fill="#07142d"><defs><symbol viewBox="0 0 24 24" id="facebook"><title>facebook</title><path d="M16.4676 2.80421H14.1408C11.5347 2.80421 9.85933 4.56906 9.85933 7.35566V9.39917H7.53246C7.34631 9.39917 7.16016 9.58495 7.16016 9.77072L7.16016 12.836C7.16016 13.0218 7.34631 13.2075 7.53246 13.2075H9.85933V20.8243C9.85933 21.01 10.0455 21.1958 10.2316 21.1958H13.3031C13.4892 21.1958 13.6754 21.01 13.6754 20.8243V13.2075H16.3746C16.5607 13.2075 16.7469 13.0218 16.7469 12.836V9.77072C16.7469 9.67783 16.7469 9.58495 16.6538 9.49206C16.5607 9.49206 16.4676 9.39917 16.3746 9.39917H13.5823V7.63432C13.5823 6.79834 13.7685 6.33391 14.8854 6.33391H16.4676C16.6538 6.33391 16.8399 6.14813 16.8399 5.96236V3.17575C16.8399 2.98998 16.6538 2.80421 16.4676 2.80421Z" fill="#394254"></path></symbol></defs><use xlink:href="#facebook" fill="#07142D"></use></svg>