<svg xmlns:xlink="http://www.w3.org/1999/xlink" xmlns="http://www.w3.org/2000/svg" width="24" height="24" fill="#07142d"><defs><symbol viewBox="0 0 24 24" id="instagram"><title>instagram</title><path fill-rule="evenodd" clip-rule="evenodd" d="M3.11876 5.84627C2.5 7.101 2.5 8.734 2.5 12C2.5 15.266 2.5 16.899 3.11876 18.1537C3.70294 19.3383 4.66167 20.2971 5.84627 20.8812C7.101 21.5 8.734 21.5 12 21.5C15.266 21.5 16.899 21.5 18.1537 20.8812C19.3383 20.2971 20.2971 19.3383 20.8812 18.1537C21.5 16.899 21.5 15.266 21.5 12C21.5 8.734 21.5 7.101 20.8812 5.84627C20.2971 4.66167 19.3383 3.70294 18.1537 3.11876C16.899 2.5 15.266 2.5 12 2.5C8.734 2.5 7.101 2.5 5.84627 3.11876C4.66167 3.70294 3.70294 4.66167 3.11876 5.84627ZM5.65665 7.43693C5.21289 8.30786 5.21289 9.44797 5.21289 11.7282V12.271C5.21289 14.5513 5.21289 15.6914 5.65665 16.5623C6.04699 17.3284 6.66984 17.9512 7.43593 18.3416C8.30686 18.7853 9.44696 18.7853 11.7272 18.7853H12.27C14.5502 18.7853 15.6904 18.7853 16.5613 18.3416C17.3274 17.9512 17.9502 17.3284 18.3406 16.5623C18.7843 15.6914 18.7843 14.5513 18.7843 12.271V11.7282C18.7843 9.44797 18.7843 8.30786 18.3406 7.43693C17.9502 6.67085 17.3274 6.048 16.5613 5.65766C15.6904 5.2139 14.5502 5.2139 12.27 5.2139H11.7272C9.44696 5.2139 8.30686 5.2139 7.43593 5.65766C6.66984 6.048 6.04699 6.67085 5.65665 7.43693ZM12.27 6.57104H11.7272C10.5647 6.57104 9.77442 6.57209 9.16358 6.622C8.56859 6.67061 8.26432 6.75873 8.05206 6.86688C7.54133 7.12711 7.1261 7.54234 6.86587 8.05306C6.75772 8.26532 6.66961 8.5696 6.621 9.16459C6.57109 9.77543 6.57003 10.5657 6.57003 11.7282V12.271C6.57003 13.4335 6.57109 14.2238 6.621 14.8346C6.66961 15.4296 6.75772 15.7339 6.86587 15.9462C7.1261 16.4569 7.54133 16.8721 8.05206 17.1323C8.26432 17.2405 8.56859 17.3286 9.16358 17.3772C9.77442 17.4271 10.5647 17.4282 11.7272 17.4282H12.27C13.4325 17.4282 14.2228 17.4271 14.8336 17.3772C15.4286 17.3286 15.7329 17.2405 15.9452 17.1323C16.4559 16.8721 16.8711 16.4569 17.1313 15.9462C17.2395 15.7339 17.3276 15.4296 17.3762 14.8346C17.4261 14.2238 17.4272 13.4335 17.4272 12.271V11.7282C17.4272 10.5657 17.4261 9.77543 17.3762 9.16459C17.3276 8.5696 17.2395 8.26532 17.1313 8.05306C16.8711 7.54234 16.4559 7.12711 15.9452 6.86688C15.7329 6.75873 15.4286 6.67061 14.8336 6.622C14.2228 6.57209 13.4325 6.57104 12.27 6.57104ZM16.7486 8.26747C16.7486 8.82961 16.2929 9.28532 15.7307 9.28532C15.1686 9.28532 14.7129 8.82961 14.7129 8.26747C14.7129 7.70532 15.1686 7.24961 15.7307 7.24961C16.2929 7.24961 16.7486 7.70532 16.7486 8.26747ZM11.9986 15.3925C13.8724 15.3925 15.3915 13.8734 15.3915 11.9996C15.3915 10.1258 13.8724 8.60675 11.9986 8.60675C10.1248 8.60675 8.60575 10.1258 8.60575 11.9996C8.60575 13.8734 10.1248 15.3925 11.9986 15.3925ZM11.9986 14.0353C13.1229 14.0353 14.0343 13.1239 14.0343 11.9996C14.0343 10.8753 13.1229 9.9639 11.9986 9.9639C10.8743 9.9639 9.96289 10.8753 9.96289 11.9996C9.96289 13.1239 10.8743 14.0353 11.9986 14.0353Z" fill="#394254"></path></symbol></defs><use xlink:href="#instagram" fill="#07142D"></use></svg>