<svg xmlns:xlink="http://www.w3.org/1999/xlink" xmlns="http://www.w3.org/2000/svg" width="24" height="24" fill="#07142d"><defs><symbol viewBox="0 0 24 24" id="linkedin"><title>linkedin</title><path fill-rule="evenodd" clip-rule="evenodd" d="M4.67882 3.28809C3.20475 3.28809 2.32031 4.15443 2.32031 5.30956C2.32031 6.46469 3.20475 7.33104 4.58055 7.33104C6.05461 7.33104 6.93905 6.46469 6.93905 5.30956C6.93905 4.15443 6.05461 3.28809 4.67882 3.28809ZM21.6798 13.9731V20.7113H17.5525V14.4544C17.5525 12.9142 16.9628 11.7591 15.4888 11.7591C14.3095 11.7591 13.6216 12.5292 13.3268 13.203C13.2285 13.4918 13.2285 13.7806 13.2285 14.1656L13.2285 20.7113H9.00287C9.00287 20.7113 9.10114 10.0264 9.00287 8.96751H13.1303V10.6039C13.7199 9.83386 14.7026 8.67873 16.8646 8.67873C19.6161 8.67873 21.6798 10.4114 21.6798 13.9731ZM6.74386 20.7118H2.61648L2.61648 8.96799H6.74386L6.74386 20.7118Z" fill="#394254"></path></symbol></defs><use xlink:href="#linkedin" fill="#07142D"></use></svg>