<svg xmlns:xlink="http://www.w3.org/1999/xlink" xmlns="http://www.w3.org/2000/svg" width="24" height="24" fill="#07142d"><defs><symbol viewBox="0 0 24 24" id="whatsapp"><path d="M4.00321 20L5.08481 16.0256C4.37212 14.8039 3.99769 13.4144 4.00001 12C4.00001 7.5816 7.58161 4 12 4C16.4184 4 20 7.5816 20 12C20 16.4184 16.4184 20 12 20C10.5862 20.0023 9.19733 19.6281 7.97601 18.916L4.00321 20ZM9.11281 8.2464C9.0095 8.25281 8.90855 8.28002 8.81601 8.3264C8.72922 8.37554 8.65 8.43698 8.58081 8.5088C8.48481 8.5992 8.43041 8.6776 8.37201 8.7536C8.07634 9.13839 7.9173 9.61073 7.92001 10.096C7.92161 10.488 8.02401 10.8696 8.18401 11.2264C8.51121 11.948 9.04961 12.712 9.76081 13.42C9.93201 13.5904 10.0992 13.7616 10.2792 13.9208C11.1619 14.698 12.2138 15.2584 13.3512 15.5576L13.8064 15.6272C13.9544 15.6352 14.1024 15.624 14.2512 15.6168C14.4842 15.6048 14.7117 15.5417 14.9176 15.432C15.0504 15.3616 15.1128 15.3264 15.224 15.256C15.224 15.256 15.2584 15.2336 15.324 15.184C15.432 15.104 15.4984 15.0472 15.588 14.9536C15.6544 14.8848 15.712 14.804 15.756 14.712C15.8184 14.5816 15.8808 14.3328 15.9064 14.1256C15.9256 13.9672 15.92 13.8808 15.9176 13.8272C15.9144 13.7416 15.8432 13.6528 15.7656 13.6152L15.3 13.4064C15.3 13.4064 14.604 13.1032 14.1792 12.9096C14.1344 12.8901 14.0864 12.879 14.0376 12.8768C13.9829 12.8712 13.9276 12.8773 13.8754 12.8949C13.8232 12.9124 13.7754 12.9409 13.7352 12.9784V12.9768C13.7312 12.9768 13.6776 13.0224 13.0992 13.7232C13.066 13.7678 13.0203 13.8015 12.9678 13.82C12.9154 13.8386 12.8587 13.8411 12.8048 13.8272C12.7527 13.8133 12.7016 13.7956 12.652 13.7744C12.5528 13.7328 12.5184 13.7168 12.4504 13.6872L12.4464 13.6856C11.9887 13.4858 11.565 13.2159 11.1904 12.8856C11.0896 12.7976 10.996 12.7016 10.9 12.6088C10.5853 12.3074 10.311 11.9664 10.084 11.5944L10.0368 11.5184C10.0029 11.4673 9.97549 11.4122 9.95521 11.3544C9.92481 11.2368 10.004 11.1424 10.004 11.1424C10.004 11.1424 10.1984 10.9296 10.2888 10.8144C10.3641 10.7187 10.4343 10.6191 10.4992 10.516C10.5936 10.364 10.6232 10.208 10.5736 10.0872C10.3496 9.54 10.1176 8.9952 9.87921 8.4544C9.83201 8.3472 9.69201 8.2704 9.56481 8.2552C9.52161 8.2504 9.47841 8.2456 9.43521 8.2424C9.32777 8.23706 9.22011 8.23813 9.11281 8.2456V8.2464Z" fill="#394254"></path></symbol></defs><use xlink:href="#whatsapp" fill="#07142D"></use></svg>